<svg viewBox="0 0 115.71 98.29" xmlns="http://www.w3.org/2000/svg" fill="#FFF"><g data-name="Layer 2"><g data-name="Layer 1"><path d="M99 53.07h-9a23.31 23.31 0 011.41 8v33.88a10 10 0 01-.58 3.35h14.81a10 10 0 0010-10V69.79A16.75 16.75 0 0099 53.07zm-31-8.72H47.53A16.75 16.75 0 0030.8 61.08v33.87a3.35 3.35 0 003.35 3.35H81.4a3.35 3.35 0 003.35-3.35V61.08A16.75 16.75 0 0068 44.35zM57.77 0a20.11 20.11 0 1020.12 20.12A20.14 20.14 0 0057.77 0zM93.1 18.75a15 15 0 1015 15 15.06 15.06 0 00-15-15zM16.73 53.07h9a23.31 23.31 0 00-1.41 8v33.88a10 10 0 00.58 3.35H10a10 10 0 01-10-10V69.79a16.75 16.75 0 0116.73-16.72z"/><path d="M22.61 18.75a15 15 0 11-15 15 15.06 15.06 0 0115-15z"/></g></g></svg>